<svg width="92" height="42" viewBox="0 0 92 42" fill="none" xmlns="http://www.w3.org/2000/svg">
<path d="M2.68008 27.7831C9.74653 25.192 36.599 12.708 44.3721 6.58372C52.1452 0.459459 45.5499 -0.482734 40.3678 3.05049C35.1858 6.58372 10.2176 27.5475 2.68008 37.205C-4.85747 46.8625 15.1641 32.9651 19.404 30.3741C23.6439 27.7831 43.1945 15.0635 46.7277 12.4724C50.2609 9.8814 47.4343 9.4103 41.3101 14.1213C35.1858 18.8322 24.586 28.7253 19.404 32.9651C14.222 37.205 16.813 37.4406 21.7595 33.9073C26.7061 30.3741 46.021 15.0635 49.0832 12.4724C52.1453 9.8814 48.8475 10.1169 44.3721 13.4146C39.8968 16.7123 28.1194 30.6097 25.2928 33.9073C22.4662 37.205 21.2884 40.0316 25.9994 37.205C30.7104 34.3784 50.9676 15.299 53.0875 13.4146C55.2074 11.5302 53.323 10.3525 50.0254 13.4146C46.7277 16.4768 24.115 38.1472 29.7682 35.5562C35.4214 32.9651 45.7855 26.3698 48.6121 24.4854C51.4386 22.601 49.0832 21.6588 46.2566 23.7788C43.43 25.8987 39.1901 30.6097 42.9589 29.6675C46.7277 28.7253 53.323 25.4276 55.9141 23.7788C58.5051 22.1299 54.7363 22.3655 52.1453 24.4854C49.5543 26.6053 46.021 31.7874 50.4965 30.3741C54.9719 28.9608 57.7985 27.312 60.3895 25.8987C62.9805 24.4854 61.5672 23.0721 59.2117 24.4854C56.8563 25.8987 55.2074 31.3163 59.2117 29.6675C63.2161 28.0186 65.336 26.3698 66.7493 25.4276C68.1626 24.4854 65.8071 24.0143 64.3938 24.9565C62.9805 25.8987 60.8606 31.3163 64.3938 29.6675C67.927 28.0186 72.1669 26.1342 74.2868 24.9565C76.4068 23.7788 73.1091 23.3077 71.2247 24.9565C69.3403 26.6053 68.1626 30.1386 71.2247 29.1964C74.2868 28.2542 76.6423 27.312 78.2912 26.3698C79.94 25.4276 78.2912 27.312 80.1756 27.312C82.0599 27.312 82.531 27.312 83.4732 26.8409C84.4154 26.3698 83.2377 28.9608 84.4154 28.4897C85.5932 28.0186 87.7131 28.2542 90.5397 27.312" stroke="white" stroke-width="2" stroke-linecap="round"/>
</svg>
