<svg width="48" height="48" viewBox="0 0 48 48" fill="none" xmlns="http://www.w3.org/2000/svg">
<path d="M41.8293 20.0895L48 13.9183L45.8733 2.12751L34.0834 0L27.913 6.17121L35.8995 7.61008L28.7122 14.7995C25.7478 12.7219 22.1407 11.4955 18.252 11.4955C8.18821 11.4956 0 19.6866 0 29.7503C0 39.8134 8.18821 48 18.252 48C28.3167 48 36.5032 39.8134 36.5032 29.7503C36.5032 25.8629 35.2816 22.2523 33.2013 19.2911L40.3886 12.1016L41.8293 20.0895ZM18.252 41.6517C11.6888 41.6517 6.34806 36.3148 6.34806 29.7503C6.34806 23.1856 11.6889 17.848 18.252 17.848C24.8157 17.848 30.1556 23.1855 30.1556 29.7503C30.1556 36.3146 24.8157 41.6517 18.252 41.6517Z" fill="#778FF4"/>
</svg>
