<svg width="53" height="48" viewBox="0 0 53 48" fill="none" xmlns="http://www.w3.org/2000/svg">
<path d="M52.2328 45.3087L27.8199 0.94045C27.5008 0.360404 26.8909 0 26.229 0C25.5668 0 24.9573 0.360404 24.638 0.94045L0.224943 45.3087C-0.0846185 45.8711 -0.0740141 46.5553 0.252688 47.1082C0.579391 47.6609 1.17367 48 1.81575 48H50.642C51.2842 48 51.8785 47.6609 52.2052 47.1082C52.5319 46.5553 52.5424 45.8711 52.2328 45.3087ZM4.88754 44.3682L26.229 5.58242L47.5704 44.3682H4.88754Z" fill="#647AD8"/>
<path d="M23.9531 18.5568V31.6817C23.9531 32.9383 24.972 33.9573 26.2287 33.9573C27.4853 33.9573 28.5043 32.9383 28.5043 31.6817V18.5568C28.5043 17.3001 27.4853 16.2812 26.2287 16.2812C24.972 16.2812 23.9531 17.3003 23.9531 18.5568Z" fill="#647AD8"/>
<path d="M26.2292 36.3193C24.9077 36.3193 23.8323 37.3942 23.8323 38.7162C23.8323 40.0378 24.9077 41.1131 26.2292 41.1131C27.5506 41.1131 28.626 40.0378 28.626 38.7162C28.626 37.3943 27.5505 36.3193 26.2292 36.3193Z" fill="#647AD8"/>
</svg>
