<svg width="32" height="32" viewBox="0 0 32 32" fill="none" xmlns="http://www.w3.org/2000/svg">
<path d="M27.8862 13.393L32 9.27887L30.5822 1.41834L22.7223 0L18.6086 4.11414L23.933 5.07339L19.1415 9.86634C17.1652 8.48127 14.7605 7.66365 12.168 7.66365C5.45881 7.66374 0 13.1244 0 19.8335C0 26.5422 5.45881 32 12.168 32C18.8778 32 24.3355 26.5422 24.3355 19.8335C24.3355 17.2419 23.5211 14.8348 22.1342 12.8607L26.9257 8.06776L27.8862 13.393ZM12.168 27.7678C7.79252 27.7678 4.23204 24.2099 4.23204 19.8335C4.23204 15.4571 7.79262 11.8986 12.168 11.8986C16.5438 11.8986 20.1037 15.457 20.1037 19.8335C20.1037 24.2098 16.5438 27.7678 12.168 27.7678Z" fill="white"/>
</svg>
